<?xml version="1.0" standalone="no"?>
<!DOCTYPE svg PUBLIC "-//W3C//DTD SVG 20010904//EN"
 "http://www.w3.org/TR/2001/REC-SVG-20010904/DTD/svg10.dtd">
<svg version="1.0" xmlns="http://www.w3.org/2000/svg"
 width="1219.000000pt" height="1280.000000pt" viewBox="0 0 1219.000000 1280.000000"
 preserveAspectRatio="xMidYMid meet">
<metadata>
Created by potrace 1.15, written by Peter Selinger 2001-2017
</metadata>
<g transform="translate(0.000000,1280.000000) scale(0.100000,-0.100000)"
fill="#000000" stroke="none">
<path d="M3065 12778 c-387 -280 -654 -505 -950 -802 -457 -458 -786 -874
-1087 -1376 -350 -584 -573 -1097 -763 -1755 -128 -446 -206 -881 -255 -1430
-12 -132 -12 -729 0 -875 12 -148 54 -497 81 -670 106 -685 361 -1459 686
-2080 610 -1165 1537 -2130 2703 -2814 195 -115 648 -341 842 -421 664 -272
1281 -427 2085 -522 218 -26 249 -27 713 -27 516 -1 580 4 1020 65 579 80
1253 260 1775 474 210 86 326 140 565 261 584 296 1062 621 1573 1072 114 101
174 169 114 129 -157 -103 -582 -342 -754 -425 -76 -36 -81 -37 -191 -37 -89
0 -115 3 -123 15 -6 9 -7 50 -4 100 3 47 6 96 7 110 0 14 -7 59 -17 100 -24
104 -11 167 53 250 26 34 62 80 79 103 65 84 87 219 44 273 -36 46 -59 56
-140 63 l-76 6 -8 90 c-4 50 -9 315 -10 590 -2 445 0 505 15 543 16 43 16 44
-14 100 -26 50 -29 64 -25 115 4 49 16 78 75 180 39 67 80 150 91 184 22 66
28 171 11 203 -16 31 -76 60 -147 74 l-68 12 -2 175 c-10 677 -22 1005 -38
1049 -9 25 -19 83 -22 130 l-5 85 71 95 c86 116 111 177 114 280 2 76 2 77
-36 119 -29 32 -37 49 -33 65 4 11 9 40 12 63 6 40 5 43 -27 57 -19 8 -42 17
-52 20 -32 10 -29 34 14 107 39 65 43 77 40 128 -5 80 -5 123 -1 232 3 89 1
100 -22 140 -29 50 -189 208 -266 263 -47 35 -50 39 -45 71 5 30 1 39 -28 66
-36 34 -38 44 -30 179 3 36 -4 84 -19 140 l-24 85 -12 -74 c-7 -40 -17 -78
-23 -84 -7 -7 -11 -53 -11 -112 0 -92 -2 -104 -21 -121 -12 -10 -31 -39 -42
-64 -22 -49 -20 -47 -127 -124 -93 -66 -175 -152 -201 -211 -23 -51 -28 -172
-10 -219 10 -25 8 -34 -19 -76 -52 -82 -40 -144 46 -227 30 -29 52 -58 48 -64
-9 -15 -85 -49 -110 -49 -15 0 -24 9 -32 33 l-10 32 -1 -30 c-1 -16 -8 -52
-16 -79 -8 -27 -15 -82 -15 -121 0 -59 -4 -75 -20 -90 -11 -10 -25 -33 -32
-51 -9 -25 -36 -52 -98 -97 -92 -68 -150 -131 -175 -190 -18 -42 -20 -121 -4
-165 9 -27 7 -36 -15 -69 -14 -21 -26 -52 -26 -69 0 -31 36 -91 79 -128 31
-28 26 -45 -23 -66 l-44 -18 5 -66 c5 -59 3 -67 -16 -83 -30 -25 -44 -91 -31
-149 13 -57 29 -89 97 -187 60 -89 62 -100 37 -237 -11 -62 -17 -209 -23 -543
-4 -251 -10 -460 -14 -463 -3 -3 -31 -12 -62 -20 -77 -20 -103 -39 -116 -84
-19 -63 -3 -122 77 -278 44 -86 74 -157 74 -175 0 -16 -11 -54 -25 -83 -21
-44 -23 -57 -14 -83 7 -18 12 -120 13 -244 l1 -212 -30 1 c-25 1 -424 147
-547 201 -36 15 -37 17 -31 59 10 72 0 90 -67 121 -44 20 -63 34 -68 53 -12
42 -8 287 7 415 28 256 -8 453 -127 678 -151 288 -467 529 -808 617 -63 17
-124 30 -135 30 -28 0 -79 53 -79 82 0 13 -14 43 -31 68 -29 42 -31 50 -25
107 3 43 1 73 -9 97 -8 20 -15 52 -15 73 0 46 -14 73 -24 48 -3 -9 -6 -29 -6
-43 0 -15 -10 -45 -22 -67 -17 -32 -21 -54 -19 -107 2 -56 -2 -76 -22 -115
-14 -27 -30 -60 -36 -75 -15 -40 -49 -57 -143 -72 -248 -40 -461 -138 -652
-298 -177 -148 -293 -320 -367 -539 -24 -71 -32 -118 -39 -222 -5 -72 -7 -160
-4 -196 2 -36 9 -163 15 -282 l12 -216 -37 -48 c-20 -26 -36 -54 -36 -61 0
-22 -37 -40 -225 -107 -99 -36 -262 -97 -363 -137 -142 -56 -186 -70 -195 -61
-17 17 -16 406 2 487 12 56 12 63 -8 95 -24 39 -28 103 -9 146 7 15 34 63 60
107 87 144 108 237 67 290 -27 35 -53 48 -119 61 l-55 12 -7 394 c-7 451 -12
525 -38 626 -24 91 -18 112 54 206 106 139 125 222 68 303 -30 41 -33 52 -28
89 7 45 -9 69 -49 77 -31 5 -31 50 1 99 24 39 26 49 21 112 -4 46 -1 92 9 137
15 66 15 69 -7 111 -28 55 -134 162 -216 218 -56 37 -63 45 -63 75 0 22 -8 42
-25 58 -21 21 -25 37 -30 109 -10 143 -16 189 -26 189 -5 0 -9 -10 -9 -23 0
-12 -9 -40 -20 -62 -15 -29 -20 -59 -20 -113 0 -67 -3 -78 -30 -112 -16 -21
-30 -43 -30 -49 0 -6 -42 -42 -92 -79 -172 -127 -205 -181 -194 -309 5 -68 4
-77 -19 -111 -14 -20 -25 -46 -25 -58 0 -26 51 -97 85 -120 35 -23 31 -40 -15
-64 -49 -25 -55 -38 -42 -91 9 -35 8 -43 -14 -68 -29 -35 -44 -73 -44 -111 0
-50 40 -139 92 -203 81 -100 82 -106 63 -195 -29 -132 -34 -206 -35 -587 -1
-203 -4 -388 -8 -409 -7 -39 -8 -39 -69 -52 -71 -14 -105 -34 -121 -70 -29
-61 -3 -152 82 -288 84 -134 92 -181 45 -247 -20 -29 -21 -35 -10 -81 7 -32
11 -176 11 -415 l0 -365 -32 6 c-18 3 -82 10 -143 16 -60 6 -135 20 -165 30
-30 10 -81 22 -113 25 l-58 7 3 606 c2 493 6 611 17 628 12 18 10 26 -19 78
-48 85 -42 121 54 310 91 181 106 222 106 293 0 94 -37 131 -155 155 -36 7
-59 17 -66 30 -6 11 -13 241 -19 581 -8 508 -11 568 -28 627 -10 36 -22 97
-26 137 l-7 72 62 78 c83 105 128 200 136 289 5 69 5 69 -36 124 -45 60 -45
60 -31 110 14 50 5 67 -51 95 -27 14 -49 30 -49 36 0 6 17 40 37 77 31 55 37
75 36 121 0 31 -4 70 -8 88 -4 20 -1 56 9 95 22 90 20 116 -14 185 -33 67
-162 199 -262 268 -56 39 -57 40 -51 81 5 36 2 43 -26 67 l-31 26 0 105 c0 58
-4 115 -9 128 -6 13 -13 49 -16 81 -8 69 -20 67 -29 -4 -4 -29 -14 -66 -23
-83 -12 -22 -15 -55 -14 -122 1 -85 -1 -94 -24 -122 -14 -17 -31 -48 -39 -69
-10 -30 -27 -48 -87 -88 -93 -62 -209 -176 -239 -235 -31 -60 -38 -156 -16
-210 18 -45 15 -56 -31 -116 -40 -54 -24 -108 59 -199 26 -29 48 -58 48 -64 0
-6 -22 -22 -49 -36 -27 -13 -53 -30 -57 -36 -3 -6 -1 -35 6 -64 l13 -53 -42
-62 c-48 -73 -52 -109 -21 -200 26 -76 69 -149 132 -221 l50 -58 -11 -98 c-6
-54 -18 -120 -27 -148 -14 -43 -18 -132 -24 -610 -3 -308 -10 -567 -14 -576
-4 -10 -25 -18 -56 -22 -58 -7 -123 -38 -144 -69 -23 -32 -21 -141 4 -213 11
-32 46 -106 77 -164 111 -208 112 -213 58 -317 -23 -45 -32 -70 -24 -74 19
-12 28 -82 35 -275 6 -184 -10 -747 -22 -792 -6 -22 -7 -22 -52 15 -56 46
-385 391 -508 532 -461 532 -838 1140 -1122 1805 -184 432 -318 867 -421 1367
-86 417 -141 1047 -127 1474 26 847 182 1622 473 2363 305 776 733 1486 1264
2097 48 55 146 165 218 244 140 154 163 186 96 138z m7035 -6140 c0 -16 -3
-19 -11 -11 -6 6 -8 16 -5 22 11 17 16 13 16 -11z"/>
<path d="M7610 5609 c0 -41 74 -89 108 -70 9 6 12 11 6 11 -6 0 -32 16 -57 35
-49 38 -57 41 -57 24z"/>
</g>
</svg>
